<svg width="268" height="88" viewBox="0 0 268 88" fill="none" xmlns="http://www.w3.org/2000/svg">
<rect width="268" height="88" rx="44" fill="black"/>
<circle cx="225" cy="44" r="25" fill="white"/>
<path d="M216.128 50.5082C215.632 50.9755 215.608 51.7568 216.076 52.2534C216.543 52.7499 217.324 52.7735 217.821 52.3062L216.975 51.4072L216.128 50.5082ZM233.949 36.6298C233.97 35.9483 233.434 35.3791 232.753 35.3584L221.647 35.0219C220.965 35.0012 220.396 35.537 220.375 36.2185C220.355 36.9 220.89 37.4692 221.572 37.4899L231.444 37.789L231.145 47.661C231.124 48.3426 231.66 48.9118 232.341 48.9324C233.023 48.9531 233.592 48.4173 233.613 47.7358L233.949 36.6298ZM216.975 51.4072L217.821 52.3062L233.561 37.4914L232.715 36.5924L231.869 35.6934L216.128 50.5082L216.975 51.4072Z" fill="black"/>
<path d="M63.4127 39.356H60.4811C60.3077 38.5127 60.0043 37.7719 59.5709 37.1336C59.1453 36.4953 58.6252 35.9594 58.0105 35.5259C57.4037 35.0846 56.7299 34.7536 55.9891 34.533C55.2483 34.3123 54.476 34.202 53.6722 34.202C52.2064 34.202 50.8785 34.5724 49.6885 35.3132C48.5064 36.0539 47.5646 37.1454 46.8632 38.5876C46.1697 40.0298 45.823 41.799 45.823 43.8952C45.823 45.9915 46.1697 47.7607 46.8632 49.2029C47.5646 50.6451 48.5064 51.7365 49.6885 52.4773C50.8785 53.2181 52.2064 53.5885 53.6722 53.5885C54.476 53.5885 55.2483 53.4782 55.9891 53.2575C56.7299 53.0369 57.4037 52.7098 58.0105 52.2764C58.6252 51.835 59.1453 51.2952 59.5709 50.6569C60.0043 50.0107 60.3077 49.2699 60.4811 48.4345H63.4127C63.1921 49.6718 62.7901 50.779 62.207 51.7562C61.6238 52.7334 60.8988 53.5649 60.0319 54.2505C59.165 54.9282 58.1917 55.4444 57.1121 55.799C56.0403 56.1537 54.8937 56.331 53.6722 56.331C51.6074 56.331 49.7712 55.8266 48.1636 54.8179C46.5559 53.8092 45.291 52.3749 44.369 50.515C43.447 48.6552 42.9859 46.4486 42.9859 43.8952C42.9859 41.3419 43.447 39.1353 44.369 37.2755C45.291 35.4156 46.5559 33.9813 48.1636 32.9726C49.7712 31.9639 51.6074 31.4595 53.6722 31.4595C54.8937 31.4595 56.0403 31.6368 57.1121 31.9914C58.1917 32.3461 59.165 32.8662 60.0319 33.5518C60.8988 34.2296 61.6238 35.057 62.207 36.0342C62.7901 37.0036 63.1921 38.1108 63.4127 39.356ZM70.5615 31.7905V56H67.7717V31.7905H70.5615ZM75.6711 56V37.8429H78.4609V56H75.6711ZM77.0897 34.8167C76.5459 34.8167 76.077 34.6315 75.683 34.2611C75.2968 33.8907 75.1037 33.4454 75.1037 32.9253C75.1037 32.4052 75.2968 31.9599 75.683 31.5895C76.077 31.2191 76.5459 31.0339 77.0897 31.0339C77.6334 31.0339 78.0984 31.2191 78.4846 31.5895C78.8786 31.9599 79.0756 32.4052 79.0756 32.9253C79.0756 33.4454 78.8786 33.8907 78.4846 34.2611C78.0984 34.6315 77.6334 34.8167 77.0897 34.8167ZM90.9469 56.3783C89.2447 56.3783 87.7789 55.9764 86.5495 55.1725C85.3201 54.3687 84.3744 53.2615 83.7124 51.8508C83.0504 50.4402 82.7194 48.8286 82.7194 47.016C82.7194 45.1719 83.0583 43.5446 83.7361 42.1339C84.4217 40.7154 85.3752 39.6081 86.5967 38.8122C87.8261 38.0084 89.2604 37.6064 90.8996 37.6064C92.1763 37.6064 93.3269 37.8429 94.3514 38.3157C95.3758 38.7886 96.2151 39.4505 96.8692 40.3016C97.5233 41.1528 97.9292 42.1457 98.0868 43.2805H95.297C95.0843 42.4531 94.6114 41.7202 93.8785 41.0818C93.1535 40.4356 92.1763 40.1125 90.9469 40.1125C89.8594 40.1125 88.9058 40.3962 88.0862 40.9636C87.2745 41.5232 86.6401 42.3152 86.183 43.3397C85.7338 44.3563 85.5092 45.5502 85.5092 46.9214C85.5092 48.3242 85.7299 49.5457 86.1712 50.586C86.6204 51.6262 87.2508 52.434 88.0626 53.0093C88.8822 53.5846 89.8436 53.8722 90.9469 53.8722C91.6719 53.8722 92.33 53.7461 92.921 53.4939C93.5121 53.2418 94.0125 52.8792 94.4223 52.4064C94.8321 51.9336 95.1237 51.3661 95.297 50.7042H98.0868C97.9292 51.7759 97.5391 52.7413 96.9165 53.6003C96.3018 54.4514 95.4862 55.1292 94.4696 55.6335C93.4608 56.13 92.2866 56.3783 90.9469 56.3783ZM104.766 49.3802L104.718 45.9285H105.286L113.23 37.8429H116.681L108.217 46.4013H107.981L104.766 49.3802ZM102.165 56V31.7905H104.955V56H102.165ZM113.702 56L106.61 47.016L108.596 45.0773L117.249 56H113.702ZM130.013 31.7905H133.512L141.739 51.8863H142.023L150.25 31.7905H153.749V56H151.007V37.6064H150.77L143.205 56H140.557L132.991 37.6064H132.755V56H130.013V31.7905ZM166.862 56.3783C165.112 56.3783 163.603 55.9921 162.334 55.2198C161.073 54.4396 160.1 53.3521 159.414 51.9572C158.737 50.5544 158.398 48.9231 158.398 47.0633C158.398 45.2034 158.737 43.5643 159.414 42.1457C160.1 40.7193 161.054 39.6081 162.275 38.8122C163.505 38.0084 164.939 37.6064 166.578 37.6064C167.524 37.6064 168.458 37.7641 169.38 38.0793C170.302 38.3945 171.141 38.9068 171.897 39.616C172.654 40.3174 173.257 41.2473 173.706 42.4058C174.155 43.5643 174.38 44.9907 174.38 46.685V47.8671H160.384V45.4556H171.543C171.543 44.4311 171.338 43.517 170.928 42.7131C170.526 41.9093 169.951 41.2749 169.202 40.8099C168.461 40.345 167.587 40.1125 166.578 40.1125C165.467 40.1125 164.505 40.3883 163.694 40.94C162.89 41.4837 162.271 42.193 161.838 43.0678C161.404 43.9425 161.188 44.8803 161.188 45.8812V47.4888C161.188 48.8601 161.424 50.0225 161.897 50.9761C162.378 51.9217 163.043 52.6428 163.895 53.1393C164.746 53.6279 165.735 53.8722 166.862 53.8722C167.595 53.8722 168.257 53.7698 168.848 53.5649C169.447 53.3521 169.963 53.0369 170.396 52.6192C170.83 52.1936 171.165 51.6656 171.401 51.0352L174.096 51.7917C173.812 52.7059 173.336 53.5097 172.666 54.2032C171.996 54.8888 171.168 55.4247 170.183 55.8109C169.198 56.1891 168.091 56.3783 166.862 56.3783Z" fill="white"/>
</svg>
